<svg xmlns="http://www.w3.org/2000/svg" version="1.1" xmlns:xlink="http://www.w3.org/1999/xlink" xmlns:svgjs="http://svgjs.com/svgjs" width="256" height="256" x="0" y="0" viewBox="0 0 24 24" style="enable-background:new 0 0 512 512" xml:space="preserve"><g><path d="M12,.021A10.077,10.077,0,0,0,1.935,10.087c0,5.274,8.166,12.329,9.1,13.117l.967.817.967-.817c.932-.788,9.1-7.843,9.1-13.117A10.077,10.077,0,0,0,12,.021Zm0,20.043c-3.065-2.792-7.067-7.328-7.067-9.977a7.067,7.067,0,1,1,14.134,0C19.067,12.731,15.064,17.269,12,20.064Z" fill="#c90000" data-original="#000000"></path><circle cx="12" cy="10.002" r="2.997" fill="#c90000" data-original="#000000"></circle></g></svg>